<svg width="158" height="51" viewBox="0 0 158 51" fill="none" xmlns="http://www.w3.org/2000/svg">
<path d="M10.2865 50.8473C9.88538 50.8473 9.48424 50.8473 9.08311 50.834C8.33432 50.8075 7.45182 50.7678 6.58269 50.622C5.76705 50.4763 5.045 50.2378 4.36307 49.8933C3.66776 49.5488 3.03932 49.085 2.4911 48.5418C1.94288 47.9985 1.48826 47.389 1.12723 46.6868C0.779581 46.0243 0.538899 45.2955 0.405187 44.4873C0.244732 43.5995 0.204619 42.6853 0.177876 41.9963C0.164505 41.718 0.164505 40.7905 0.164505 40.7905V10.183C0.164505 10.183 0.177876 9.26877 0.177876 9.00377C0.204619 8.31477 0.244732 7.40052 0.405187 6.52602C0.55227 5.70452 0.792952 4.98902 1.1406 4.32652C1.50163 3.63752 1.95625 3.01477 2.50447 2.47152C3.05269 1.91502 3.68114 1.46452 4.36307 1.12002C5.045 0.775516 5.78042 0.537016 6.56932 0.404516C7.47856 0.232266 8.3878 0.192516 9.08311 0.179266L10.2865 0.166016H147.703L148.919 0.179266C149.601 0.192516 150.524 0.232266 151.406 0.391266C152.209 0.537016 152.944 0.762266 153.639 1.12002C154.321 1.46452 154.95 1.92827 155.498 2.47152C156.046 3.01477 156.501 3.63752 156.862 4.32652C157.209 5.00227 157.437 5.71777 157.584 6.51277C157.744 7.34752 157.784 8.20877 157.811 9.01702C157.811 9.38802 157.811 9.79877 157.811 10.1963C157.825 10.6998 157.825 11.1635 157.825 11.6405V39.3728C157.825 39.8498 157.825 40.3268 157.811 40.8038C157.811 41.241 157.811 41.6253 157.811 42.036C157.784 42.8178 157.731 43.679 157.584 44.4873C157.45 45.2955 157.209 46.0243 156.862 46.7C156.501 47.389 156.046 48.0118 155.498 48.5418C154.95 49.0983 154.321 49.5488 153.626 49.8933C152.931 50.2378 152.222 50.4763 151.393 50.622C150.537 50.781 149.655 50.8208 148.893 50.834C148.505 50.8473 148.09 50.8473 147.689 50.8473H146.245H10.2865Z" fill="#000001"/>
</svg>
